<svg width="40" height="39" viewBox="0 0 40 39" fill="none" xmlns="http://www.w3.org/2000/svg">
<path d="M1.59004 33.7134C1.41226 33.7134 1.23448 33.8023 1.05671 33.98C0.878928 34.1578 0.790039 34.3356 0.790039 34.5134V37.8467C0.790039 38.1134 0.878928 38.3356 1.05671 38.5134C1.23448 38.6911 1.41226 38.78 1.59004 38.78H30.79C31.0567 38.78 31.2789 38.6911 31.4567 38.5134C31.6345 38.3356 31.6789 38.1134 31.59 37.8467V34.5134C31.59 34.3356 31.5234 34.1578 31.39 33.98C31.2567 33.8023 31.0567 33.7134 30.79 33.7134H1.59004ZM2.52337 35.4467H29.99V37.0467H2.52337V35.4467ZM28.2567 18.78C28.0789 18.78 27.9012 18.8467 27.7234 18.98C27.5456 19.1134 27.4567 19.3134 27.4567 19.58V33.7134H4.92337V22.2467C5.01226 21.98 4.96782 21.78 4.79004 21.6467C4.61226 21.5134 4.41226 21.4467 4.19004 21.4467C3.96782 21.4467 3.76782 21.5134 3.59004 21.6467C3.41226 21.78 3.32337 21.98 3.32337 22.2467V34.5134C3.32337 34.78 3.41226 35.0023 3.59004 35.18C3.76782 35.3578 3.94559 35.4467 4.12337 35.4467H28.2567C28.5234 35.4467 28.7456 35.3578 28.9234 35.18C29.1012 35.0023 29.19 34.78 29.19 34.5134V19.58C29.19 19.3134 29.1012 19.1134 28.9234 18.98C28.7456 18.8467 28.5234 18.78 28.2567 18.78ZM4.92337 9.58003C4.56782 9.58003 4.34559 9.7578 4.25671 10.1134L0.923372 19.3134C0.834484 19.58 0.856706 19.8245 0.990039 20.0467C1.12337 20.2689 1.32337 20.38 1.59004 20.38H30.79C31.1456 20.38 31.39 20.2689 31.5234 20.0467C31.6567 19.8245 31.6789 19.58 31.59 19.3134L28.2567 10.1134C28.1678 9.7578 27.9012 9.58003 27.4567 9.58003H23.3234C23.0567 9.58003 22.8567 9.66892 22.7234 9.84669C22.59 10.0245 22.5234 10.2245 22.5234 10.4467C22.5234 10.6689 22.59 10.8467 22.7234 10.98C22.8567 11.1134 23.0567 11.18 23.3234 11.18H26.9234L29.59 18.78H2.79004L5.59004 11.18H9.59004C9.76782 11.18 9.94559 11.1134 10.1234 10.98C10.3012 10.8467 10.39 10.6689 10.39 10.4467C10.39 10.2245 10.3012 10.0245 10.1234 9.84669C9.94559 9.66892 9.76782 9.58003 9.59004 9.58003H4.92337ZM9.59004 6.64669C9.32337 6.64669 9.12337 6.73558 8.99004 6.91336C8.85671 7.09114 8.79004 7.31336 8.79004 7.58003V15.4467C8.79004 15.6245 8.85671 15.8022 8.99004 15.98C9.12337 16.1578 9.32337 16.2467 9.59004 16.2467H22.9234C23.1012 16.2467 23.2789 16.1578 23.4567 15.98C23.6345 15.8022 23.7234 15.6245 23.7234 15.4467V7.58003C23.7234 7.31336 23.6345 7.09114 23.4567 6.91336C23.2789 6.73558 23.0789 6.64669 22.8567 6.64669C22.6345 6.64669 22.4567 6.73558 22.3234 6.91336C22.19 7.09114 22.1234 7.31336 22.1234 7.58003V14.5134H10.39V7.58003C10.39 7.31336 10.3012 7.09114 10.1234 6.91336C9.94559 6.73558 9.76782 6.64669 9.59004 6.64669ZM9.19004 0.380028C8.74559 0.380028 8.47893 0.602249 8.39004 1.0467L6.25671 7.31336C6.16782 7.58003 6.21226 7.82447 6.39004 8.04669C6.56782 8.26892 6.79004 8.38003 7.05671 8.38003H25.4567C25.7234 8.38003 25.9456 8.26892 26.1234 8.04669C26.3012 7.82447 26.3456 7.58003 26.2567 7.31336L24.1234 1.0467C24.0345 0.602249 23.7678 0.380028 23.3234 0.380028H9.19004ZM9.72337 2.11336H22.79L24.2567 6.64669H8.25671L9.72337 2.11336ZM7.45671 24.6467C7.27893 24.5578 7.10115 24.6023 6.92337 24.78C6.74559 24.9578 6.65671 25.18 6.65671 25.4467V34.5134C6.65671 34.78 6.74559 35.0023 6.92337 35.18C7.10115 35.3578 7.27893 35.4467 7.45671 35.4467H14.6567C14.8345 35.4467 15.0123 35.3578 15.19 35.18C15.3678 35.0023 15.4567 34.78 15.4567 34.5134V25.4467C15.4567 25.18 15.3678 24.98 15.19 24.8467C15.0123 24.7134 14.8345 24.6467 14.6567 24.6467H7.45671ZM8.39004 26.2467H13.7234V33.7134H8.39004V26.2467ZM17.99 24.6467C17.7234 24.5578 17.5012 24.6023 17.3234 24.78C17.1456 24.9578 17.0567 25.18 17.0567 25.4467V31.0467C17.0567 31.2245 17.1456 31.4023 17.3234 31.58C17.5012 31.7578 17.7234 31.8467 17.99 31.8467H25.8567C26.0345 31.8467 26.2123 31.7578 26.39 31.58C26.5678 31.4023 26.6567 31.2245 26.6567 31.0467V28.2467C26.6567 27.98 26.5678 27.78 26.39 27.6467C26.2123 27.5134 26.0123 27.4467 25.79 27.4467C25.5678 27.4467 25.3678 27.5134 25.19 27.6467C25.0123 27.78 24.9234 27.98 24.9234 28.2467V30.2467H18.79V26.2467H25.8567C26.0345 26.2467 26.2123 26.1578 26.39 25.98C26.5678 25.8023 26.6567 25.6023 26.6567 25.38C26.6567 25.1578 26.5678 24.98 26.39 24.8467C26.2123 24.7134 26.0345 24.6467 25.8567 24.6467H17.99ZM13.3234 9.04669C13.0567 8.95781 12.8567 9.00225 12.7234 9.18003C12.59 9.35781 12.5234 9.58003 12.5234 9.84669V13.18C12.5234 13.3578 12.59 13.5356 12.7234 13.7134C12.8567 13.8911 13.0567 13.98 13.3234 13.98H19.19C19.3678 13.98 19.5456 13.8911 19.7234 13.7134C19.9012 13.5356 19.99 13.3578 19.99 13.18V9.84669C19.99 9.58003 19.9012 9.35781 19.7234 9.18003C19.5456 9.00225 19.3678 8.95781 19.19 9.04669H13.3234ZM14.1234 10.6467H18.39V12.2467H14.1234V10.6467ZM34.1234 0.380028C32.79 0.380028 31.6345 0.868916 30.6567 1.84669C29.6789 2.82447 29.19 4.00225 29.19 5.38003C29.19 6.7578 29.6789 7.93558 30.6567 8.91336C31.6345 9.89114 32.8123 10.38 34.19 10.38C35.5678 10.38 36.7456 9.89114 37.7234 8.91336C38.7012 7.93558 39.19 6.7578 39.19 5.38003C39.19 4.00225 38.7012 2.82447 37.7234 1.84669C36.7456 0.868916 35.5456 0.380028 34.1234 0.380028ZM34.1234 2.11336C35.1012 2.11336 35.9012 2.42447 36.5234 3.0467C37.1456 3.66891 37.4567 4.44669 37.4567 5.38003C37.4567 6.31336 37.1456 7.11336 36.5234 7.78003C35.9012 8.4467 35.1234 8.78003 34.19 8.78003C33.2567 8.78003 32.4567 8.4467 31.79 7.78003C31.1234 7.11336 30.79 6.31336 30.79 5.38003C30.79 4.44669 31.1234 3.66891 31.79 3.0467C32.4567 2.42447 33.2345 2.11336 34.1234 2.11336ZM11.19 29.98C11.19 30.2467 11.1012 30.4689 10.9234 30.6467C10.7456 30.8245 10.5456 30.9134 10.3234 30.9134C10.1012 30.9134 9.90115 30.8245 9.72337 30.6467C9.5456 30.4689 9.45671 30.2467 9.45671 29.98C9.45671 29.7134 9.5456 29.4911 9.72337 29.3134C9.90115 29.1356 10.1012 29.0467 10.3234 29.0467C10.5456 29.0467 10.7456 29.1356 10.9234 29.3134C11.1012 29.4911 11.19 29.7134 11.19 29.98ZM20.9234 27.0467C20.5678 27.0467 20.3012 27.18 20.1234 27.4467L19.7234 28.1134C19.5456 28.38 19.5012 28.6245 19.59 28.8467C19.6789 29.0689 19.8123 29.2245 19.99 29.3134C20.1678 29.4023 20.3678 29.4245 20.59 29.38C20.8123 29.3356 21.0123 29.2245 21.19 29.0467L21.59 28.2467C21.6789 28.0689 21.7012 27.8689 21.6567 27.6467C21.6123 27.4245 21.5012 27.2689 21.3234 27.18C21.1456 27.0911 21.0123 27.0467 20.9234 27.0467ZM23.3234 27.0467C23.0567 27.0467 22.8345 27.18 22.6567 27.4467L22.2567 28.1134C22.0789 28.38 22.0345 28.6245 22.1234 28.8467C22.2123 29.0689 22.3456 29.2245 22.5234 29.3134C22.7012 29.4023 22.9012 29.4245 23.1234 29.38C23.3456 29.3356 23.5012 29.2245 23.59 29.0467L23.99 28.2467C24.1678 28.0689 24.2123 27.8689 24.1234 27.6467C24.0345 27.4245 23.9234 27.2689 23.79 27.18C23.6567 27.0911 23.5012 27.0467 23.3234 27.0467Z" fill="#1A1A1A"/>
</svg>
